<svg xmlns="http://www.w3.org/2000/svg" version="1.1" xmlns:xlink="http://www.w3.org/1999/xlink" xmlns:svgjs="http://svgjs.dev/svgjs" width="1440" height="560" preserveAspectRatio="none" viewBox="0 0 1440 560"><g mask="url(&quot;#SvgjsMask1211&quot;)" fill="none"><g mask="url(&quot;#SvgjsMask1213&quot;)"><path d="M132 300L156 324L180 324L204 324M204 300L228 276M180 300L204 276M-12 276L12 276L36 276L60 276L84 276L108 300L132 300L156 300L180 300L204 300L228 300L252 300L276 300L300 300" stroke="url(&quot;#SvgjsLinearGradient1212&quot;)" stroke-width="4"></path><path d="M294 300 a6 6 0 1 0 12 0 a6 6 0 1 0 -12 0zM198 324 a6 6 0 1 0 12 0 a6 6 0 1 0 -12 0zM222 276 a6 6 0 1 0 12 0 a6 6 0 1 0 -12 0zM198 276 a6 6 0 1 0 12 0 a6 6 0 1 0 -12 0z" fill="url(&quot;#SvgjsLinearGradient1212&quot;)"></path><path d="M-12 300L12 300L36 300" stroke="url(&quot;#SvgjsLinearGradient1212&quot;)" stroke-width="4"></path><path d="M30 300 a6 6 0 1 0 12 0 a6 6 0 1 0 -12 0z" fill="url(&quot;#SvgjsLinearGradient1212&quot;)"></path><path d="M108 252L132 276L156 276L180 276L204 252M-12 252L12 252L36 252L60 252L84 252L108 252L132 252" stroke="url(&quot;#SvgjsLinearGradient1212&quot;)" stroke-width="4"></path><path d="M126 252 a6 6 0 1 0 12 0 a6 6 0 1 0 -12 0zM198 252 a6 6 0 1 0 12 0 a6 6 0 1 0 -12 0z" fill="url(&quot;#SvgjsLinearGradient1212&quot;)"></path><path d="M60 300L84 324M300 396L324 372L348 372M204 372L228 348M180 372L204 348M156 372L180 348M516 396L540 372L564 372L588 348L612 348L636 348L660 372L684 372M-12 324L12 324L36 324L60 300L84 300L108 324L132 348L156 372L180 372L204 372L228 372L252 372L276 372L300 396L324 396L348 396L372 396L396 396L420 396L444 396L468 396L492 396L516 396L540 396L564 396L588 396" stroke="url(&quot;#SvgjsLinearGradient1212&quot;)" stroke-width="4"></path><path d="M582 396 a6 6 0 1 0 12 0 a6 6 0 1 0 -12 0zM78 324 a6 6 0 1 0 12 0 a6 6 0 1 0 -12 0zM342 372 a6 6 0 1 0 12 0 a6 6 0 1 0 -12 0zM222 348 a6 6 0 1 0 12 0 a6 6 0 1 0 -12 0zM198 348 a6 6 0 1 0 12 0 a6 6 0 1 0 -12 0zM174 348 a6 6 0 1 0 12 0 a6 6 0 1 0 -12 0zM678 372 a6 6 0 1 0 12 0 a6 6 0 1 0 -12 0z" fill="url(&quot;#SvgjsLinearGradient1212&quot;)"></path><path d="M-12 228L12 228L36 228L60 228L84 228L108 228" stroke="url(&quot;#SvgjsLinearGradient1212&quot;)" stroke-width="4"></path><path d="M102 228 a6 6 0 1 0 12 0 a6 6 0 1 0 -12 0z" fill="url(&quot;#SvgjsLinearGradient1212&quot;)"></path><path d="M684 420L708 396M84 348L108 372L132 396M492 420L516 444L540 444L564 444L588 444L612 444M612 420L636 396L660 396L684 396M228 396L252 420L276 420M636 420L660 444L684 444L708 444M372 420L396 444L420 444L444 444L468 444L492 444L516 468M-12 348L12 348L36 348L60 348L84 348L108 348L132 372L156 396L180 396L204 396L228 396L252 396L276 396L300 420L324 420L348 420L372 420L396 420L420 420L444 420L468 420L492 420L516 420L540 420L564 420L588 420L612 420L636 420L660 420L684 420L708 420" stroke="url(&quot;#SvgjsLinearGradient1212&quot;)" stroke-width="4"></path><path d="M702 420 a6 6 0 1 0 12 0 a6 6 0 1 0 -12 0zM702 396 a6 6 0 1 0 12 0 a6 6 0 1 0 -12 0zM126 396 a6 6 0 1 0 12 0 a6 6 0 1 0 -12 0zM606 444 a6 6 0 1 0 12 0 a6 6 0 1 0 -12 0zM678 396 a6 6 0 1 0 12 0 a6 6 0 1 0 -12 0zM270 420 a6 6 0 1 0 12 0 a6 6 0 1 0 -12 0zM702 444 a6 6 0 1 0 12 0 a6 6 0 1 0 -12 0zM510 468 a6 6 0 1 0 12 0 a6 6 0 1 0 -12 0z" fill="url(&quot;#SvgjsLinearGradient1212&quot;)"></path><path d="M12 204L36 180L60 156L84 156L108 156M60 204L84 180L108 180M-12 204L12 204L36 204L60 204L84 204" stroke="url(&quot;#SvgjsLinearGradient1212&quot;)" stroke-width="4"></path><path d="M78 204 a6 6 0 1 0 12 0 a6 6 0 1 0 -12 0zM102 156 a6 6 0 1 0 12 0 a6 6 0 1 0 -12 0zM102 180 a6 6 0 1 0 12 0 a6 6 0 1 0 -12 0z" fill="url(&quot;#SvgjsLinearGradient1212&quot;)"></path><path d="M84 420L108 396M36 372L60 372L84 372M60 396L84 396M-12 372L12 372L36 372L60 396L84 420L108 420L132 420L156 420L180 420L204 420" stroke="url(&quot;#SvgjsLinearGradient1212&quot;)" stroke-width="4"></path><path d="M198 420 a6 6 0 1 0 12 0 a6 6 0 1 0 -12 0zM102 396 a6 6 0 1 0 12 0 a6 6 0 1 0 -12 0zM78 372 a6 6 0 1 0 12 0 a6 6 0 1 0 -12 0zM78 396 a6 6 0 1 0 12 0 a6 6 0 1 0 -12 0z" fill="url(&quot;#SvgjsLinearGradient1212&quot;)"></path><path d="M396 468L420 492L444 492L468 492L492 492M372 468L396 492M132 444L156 468M228 444L252 468L276 468M-12 396L12 396L36 396L60 420L84 444L108 444L132 444L156 444L180 444L204 444L228 444L252 444L276 444L300 444L324 444L348 444L372 468L396 468L420 468" stroke="url(&quot;#SvgjsLinearGradient1212&quot;)" stroke-width="4"></path><path d="M414 468 a6 6 0 1 0 12 0 a6 6 0 1 0 -12 0zM486 492 a6 6 0 1 0 12 0 a6 6 0 1 0 -12 0zM390 492 a6 6 0 1 0 12 0 a6 6 0 1 0 -12 0zM150 468 a6 6 0 1 0 12 0 a6 6 0 1 0 -12 0zM270 468 a6 6 0 1 0 12 0 a6 6 0 1 0 -12 0z" fill="url(&quot;#SvgjsLinearGradient1212&quot;)"></path><path d="M12 156L36 156M60 132L84 132L108 132L132 132M36 132L60 108L84 84L108 84L132 84M-12 156L12 156L36 132L60 132L84 108L108 108L132 108L156 108" stroke="url(&quot;#SvgjsLinearGradient1212&quot;)" stroke-width="4"></path><path d="M150 108 a6 6 0 1 0 12 0 a6 6 0 1 0 -12 0zM30 156 a6 6 0 1 0 12 0 a6 6 0 1 0 -12 0zM126 132 a6 6 0 1 0 12 0 a6 6 0 1 0 -12 0zM126 84 a6 6 0 1 0 12 0 a6 6 0 1 0 -12 0z" fill="url(&quot;#SvgjsLinearGradient1212&quot;)"></path></g></g><defs><mask id="SvgjsMask1211"><rect width="1440" height="560" fill="#ffffff"></rect></mask><linearGradient x1="0" y1="280" x2="763.2" y2="280" gradientUnits="userSpaceOnUse" id="SvgjsLinearGradient1212"><stop stop-color="#3a7cc3" offset="0"></stop><stop stop-color="rgba(7, 255, 0, 1)" offset="1"></stop></linearGradient><mask id="SvgjsMask1213"><rect width="1440" height="560" fill="white"></rect><path d="M297 300 a3 3 0 1 0 6 0 a3 3 0 1 0 -6 0zM201 324 a3 3 0 1 0 6 0 a3 3 0 1 0 -6 0zM225 276 a3 3 0 1 0 6 0 a3 3 0 1 0 -6 0zM201 276 a3 3 0 1 0 6 0 a3 3 0 1 0 -6 0z" fill="black"></path><path d="M33 300 a3 3 0 1 0 6 0 a3 3 0 1 0 -6 0z" fill="black"></path><path d="M129 252 a3 3 0 1 0 6 0 a3 3 0 1 0 -6 0zM201 252 a3 3 0 1 0 6 0 a3 3 0 1 0 -6 0z" fill="black"></path><path d="M585 396 a3 3 0 1 0 6 0 a3 3 0 1 0 -6 0zM81 324 a3 3 0 1 0 6 0 a3 3 0 1 0 -6 0zM345 372 a3 3 0 1 0 6 0 a3 3 0 1 0 -6 0zM225 348 a3 3 0 1 0 6 0 a3 3 0 1 0 -6 0zM201 348 a3 3 0 1 0 6 0 a3 3 0 1 0 -6 0zM177 348 a3 3 0 1 0 6 0 a3 3 0 1 0 -6 0zM681 372 a3 3 0 1 0 6 0 a3 3 0 1 0 -6 0z" fill="black"></path><path d="M105 228 a3 3 0 1 0 6 0 a3 3 0 1 0 -6 0z" fill="black"></path><path d="M705 420 a3 3 0 1 0 6 0 a3 3 0 1 0 -6 0zM705 396 a3 3 0 1 0 6 0 a3 3 0 1 0 -6 0zM129 396 a3 3 0 1 0 6 0 a3 3 0 1 0 -6 0zM609 444 a3 3 0 1 0 6 0 a3 3 0 1 0 -6 0zM681 396 a3 3 0 1 0 6 0 a3 3 0 1 0 -6 0zM273 420 a3 3 0 1 0 6 0 a3 3 0 1 0 -6 0zM705 444 a3 3 0 1 0 6 0 a3 3 0 1 0 -6 0zM513 468 a3 3 0 1 0 6 0 a3 3 0 1 0 -6 0z" fill="black"></path><path d="M81 204 a3 3 0 1 0 6 0 a3 3 0 1 0 -6 0zM105 156 a3 3 0 1 0 6 0 a3 3 0 1 0 -6 0zM105 180 a3 3 0 1 0 6 0 a3 3 0 1 0 -6 0z" fill="black"></path><path d="M201 420 a3 3 0 1 0 6 0 a3 3 0 1 0 -6 0zM105 396 a3 3 0 1 0 6 0 a3 3 0 1 0 -6 0zM81 372 a3 3 0 1 0 6 0 a3 3 0 1 0 -6 0zM81 396 a3 3 0 1 0 6 0 a3 3 0 1 0 -6 0z" fill="black"></path><path d="M417 468 a3 3 0 1 0 6 0 a3 3 0 1 0 -6 0zM489 492 a3 3 0 1 0 6 0 a3 3 0 1 0 -6 0zM393 492 a3 3 0 1 0 6 0 a3 3 0 1 0 -6 0zM153 468 a3 3 0 1 0 6 0 a3 3 0 1 0 -6 0zM273 468 a3 3 0 1 0 6 0 a3 3 0 1 0 -6 0z" fill="black"></path><path d="M153 108 a3 3 0 1 0 6 0 a3 3 0 1 0 -6 0zM33 156 a3 3 0 1 0 6 0 a3 3 0 1 0 -6 0zM129 132 a3 3 0 1 0 6 0 a3 3 0 1 0 -6 0zM129 84 a3 3 0 1 0 6 0 a3 3 0 1 0 -6 0z" fill="black"></path></mask></defs></svg>