<svg xmlns="http://www.w3.org/2000/svg" version="1.1" xmlns:xlink="http://www.w3.org/1999/xlink" xmlns:svgjs="http://svgjs.dev/svgjs" width="1440" height="560" preserveAspectRatio="none" viewBox="0 0 1440 560"><g mask="url(&quot;#SvgjsMask1006&quot;)" fill="none"><path d="M-77.66 339.49L-77.66 339.49" stroke="rgba(58, 255, 0, 1)" stroke-width="1.5"></path><path d="M-77.66 339.49L48.69 409.59" stroke="rgba(58, 255, 0, 1)" stroke-width="1.5"></path><path d="M-77.66 339.49L-90.96 523.3" stroke="rgba(58, 255, 0, 1)" stroke-width="1.5"></path><path d="M-90.96 523.3L-90.96 523.3" stroke="rgba(58, 255, 0, 1)" stroke-width="1.5"></path><path d="M-90.96 523.3L57.32 497.08" stroke="rgba(58, 255, 0, 1)" stroke-width="1.5"></path><path d="M-90.96 523.3L-76.98 677.19" stroke="rgba(58, 255, 0, 1)" stroke-width="1.5"></path><path d="M-90.96 523.3L48.69 409.59" stroke="rgba(58, 255, 0, 1)" stroke-width="1.5"></path><path d="M-90.96 523.3L43.64 667.15" stroke="rgba(58, 255, 0, 1)" stroke-width="1.5"></path><path d="M-90.96 523.3L196.78 638.8" stroke="rgba(58, 255, 0, 1)" stroke-width="1.5"></path><path d="M-76.98 677.19L-76.98 677.19" stroke="rgba(58, 255, 0, 1)" stroke-width="1.5"></path><path d="M-76.98 677.19L43.64 667.15" stroke="rgba(58, 255, 0, 1)" stroke-width="1.5"></path><path d="M48.69 409.59L48.69 409.59" stroke="rgba(58, 255, 0, 1)" stroke-width="1.5"></path><path d="M48.69 409.59L57.32 497.08" stroke="rgba(58, 255, 0, 1)" stroke-width="1.5"></path><path d="M57.32 497.08L57.32 497.08" stroke="rgba(58, 255, 0, 1)" stroke-width="1.5"></path><path d="M57.32 497.08L43.64 667.15" stroke="rgba(58, 255, 0, 1)" stroke-width="1.5"></path><path d="M57.32 497.08L196.78 638.8" stroke="rgba(58, 255, 0, 1)" stroke-width="1.5"></path><path d="M43.64 667.15L43.64 667.15" stroke="rgba(58, 255, 0, 1)" stroke-width="1.5"></path><path d="M43.64 667.15L196.78 638.8" stroke="rgba(58, 255, 0, 1)" stroke-width="1.5"></path><path d="M226.01 362.44L226.01 362.44" stroke="rgba(58, 255, 0, 1)" stroke-width="1.5"></path><path d="M226.01 362.44L401.36 372.68" stroke="rgba(58, 255, 0, 1)" stroke-width="1.5"></path><path d="M226.01 362.44L256.86 536.2" stroke="rgba(58, 255, 0, 1)" stroke-width="1.5"></path><path d="M226.01 362.44L48.69 409.59" stroke="rgba(58, 255, 0, 1)" stroke-width="1.5"></path><path d="M256.86 536.2L256.86 536.2" stroke="rgba(58, 255, 0, 1)" stroke-width="1.5"></path><path d="M256.86 536.2L196.78 638.8" stroke="rgba(58, 255, 0, 1)" stroke-width="1.5"></path><path d="M256.86 536.2L395.88 516.97" stroke="rgba(58, 255, 0, 1)" stroke-width="1.5"></path><path d="M196.78 638.8L196.78 638.8" stroke="rgba(58, 255, 0, 1)" stroke-width="1.5"></path><path d="M401.36 372.68L401.36 372.68" stroke="rgba(58, 255, 0, 1)" stroke-width="1.5"></path><path d="M401.36 372.68L535.39 378.36" stroke="rgba(58, 255, 0, 1)" stroke-width="1.5"></path><path d="M401.36 372.68L395.88 516.97" stroke="rgba(58, 255, 0, 1)" stroke-width="1.5"></path><path d="M401.36 372.68L256.86 536.2" stroke="rgba(58, 255, 0, 1)" stroke-width="1.5"></path><path d="M401.36 372.68L675.85 392.4" stroke="rgba(58, 255, 0, 1)" stroke-width="1.5"></path><path d="M401.36 372.68L367.34 679.4" stroke="rgba(58, 255, 0, 1)" stroke-width="1.5"></path><path d="M395.88 516.97L395.88 516.97" stroke="rgba(58, 255, 0, 1)" stroke-width="1.5"></path><path d="M367.34 679.4L367.34 679.4" stroke="rgba(58, 255, 0, 1)" stroke-width="1.5"></path><path d="M367.34 679.4L395.88 516.97" stroke="rgba(58, 255, 0, 1)" stroke-width="1.5"></path><path d="M367.34 679.4L196.78 638.8" stroke="rgba(58, 255, 0, 1)" stroke-width="1.5"></path><path d="M535.39 378.36L535.39 378.36" stroke="rgba(58, 255, 0, 1)" stroke-width="1.5"></path><path d="M535.39 378.36L675.85 392.4" stroke="rgba(58, 255, 0, 1)" stroke-width="1.5"></path><path d="M535.39 378.36L395.88 516.97" stroke="rgba(58, 255, 0, 1)" stroke-width="1.5"></path><path d="M535.39 378.36L555.36 643.32" stroke="rgba(58, 255, 0, 1)" stroke-width="1.5"></path><path d="M535.39 378.36L815.81 252.83" stroke="rgba(58, 255, 0, 1)" stroke-width="1.5"></path><path d="M555.36 643.32L555.36 643.32" stroke="rgba(58, 255, 0, 1)" stroke-width="1.5"></path><path d="M555.36 643.32L707.31 647.19" stroke="rgba(58, 255, 0, 1)" stroke-width="1.5"></path><path d="M555.36 643.32L367.34 679.4" stroke="rgba(58, 255, 0, 1)" stroke-width="1.5"></path><path d="M555.36 643.32L395.88 516.97" stroke="rgba(58, 255, 0, 1)" stroke-width="1.5"></path><path d="M555.36 643.32L675.85 392.4" stroke="rgba(58, 255, 0, 1)" stroke-width="1.5"></path><path d="M555.36 643.32L810.24 531.16" stroke="rgba(58, 255, 0, 1)" stroke-width="1.5"></path><path d="M675.85 392.4L675.85 392.4" stroke="rgba(58, 255, 0, 1)" stroke-width="1.5"></path><path d="M675.85 392.4L847.31 375.05" stroke="rgba(58, 255, 0, 1)" stroke-width="1.5"></path><path d="M675.85 392.4L810.24 531.16" stroke="rgba(58, 255, 0, 1)" stroke-width="1.5"></path><path d="M675.85 392.4L815.81 252.83" stroke="rgba(58, 255, 0, 1)" stroke-width="1.5"></path><path d="M707.31 647.19L707.31 647.19" stroke="rgba(58, 255, 0, 1)" stroke-width="1.5"></path><path d="M707.31 647.19L810.24 531.16" stroke="rgba(58, 255, 0, 1)" stroke-width="1.5"></path><path d="M707.31 647.19L861.12 702.15" stroke="rgba(58, 255, 0, 1)" stroke-width="1.5"></path><path d="M707.31 647.19L675.85 392.4" stroke="rgba(58, 255, 0, 1)" stroke-width="1.5"></path><path d="M707.31 647.19L982.29 699.82" stroke="rgba(58, 255, 0, 1)" stroke-width="1.5"></path><path d="M707.31 647.19L847.31 375.05" stroke="rgba(58, 255, 0, 1)" stroke-width="1.5"></path><path d="M815.81 252.83L815.81 252.83" stroke="rgba(58, 255, 0, 1)" stroke-width="1.5"></path><path d="M815.81 252.83L847.31 375.05" stroke="rgba(58, 255, 0, 1)" stroke-width="1.5"></path><path d="M815.81 252.83L947.69 369.8" stroke="rgba(58, 255, 0, 1)" stroke-width="1.5"></path><path d="M847.31 375.05L847.31 375.05" stroke="rgba(58, 255, 0, 1)" stroke-width="1.5"></path><path d="M847.31 375.05L947.69 369.8" stroke="rgba(58, 255, 0, 1)" stroke-width="1.5"></path><path d="M847.31 375.05L810.24 531.16" stroke="rgba(58, 255, 0, 1)" stroke-width="1.5"></path><path d="M810.24 531.16L810.24 531.16" stroke="rgba(58, 255, 0, 1)" stroke-width="1.5"></path><path d="M810.24 531.16L861.12 702.15" stroke="rgba(58, 255, 0, 1)" stroke-width="1.5"></path><path d="M861.12 702.15L861.12 702.15" stroke="rgba(58, 255, 0, 1)" stroke-width="1.5"></path><path d="M861.12 702.15L982.29 699.82" stroke="rgba(58, 255, 0, 1)" stroke-width="1.5"></path><path d="M1004.76 74.2L1004.76 74.2" stroke="rgba(58, 255, 0, 1)" stroke-width="1.5"></path><path d="M1004.76 74.2L996.98 200.06" stroke="rgba(58, 255, 0, 1)" stroke-width="1.5"></path><path d="M1004.76 74.2L1131.26 49.71" stroke="rgba(58, 255, 0, 1)" stroke-width="1.5"></path><path d="M1004.76 74.2L1112.19 204.15" stroke="rgba(58, 255, 0, 1)" stroke-width="1.5"></path><path d="M996.98 200.06L996.98 200.06" stroke="rgba(58, 255, 0, 1)" stroke-width="1.5"></path><path d="M996.98 200.06L1112.19 204.15" stroke="rgba(58, 255, 0, 1)" stroke-width="1.5"></path><path d="M996.98 200.06L947.69 369.8" stroke="rgba(58, 255, 0, 1)" stroke-width="1.5"></path><path d="M996.98 200.06L1123.5 338.81" stroke="rgba(58, 255, 0, 1)" stroke-width="1.5"></path><path d="M996.98 200.06L815.81 252.83" stroke="rgba(58, 255, 0, 1)" stroke-width="1.5"></path><path d="M996.98 200.06L1131.26 49.71" stroke="rgba(58, 255, 0, 1)" stroke-width="1.5"></path><path d="M947.69 369.8L947.69 369.8" stroke="rgba(58, 255, 0, 1)" stroke-width="1.5"></path><path d="M982.29 699.82L982.29 699.82" stroke="rgba(58, 255, 0, 1)" stroke-width="1.5"></path><path d="M982.29 699.82L1142.79 666.33" stroke="rgba(58, 255, 0, 1)" stroke-width="1.5"></path><path d="M982.29 699.82L1092.8 495.57" stroke="rgba(58, 255, 0, 1)" stroke-width="1.5"></path><path d="M982.29 699.82L810.24 531.16" stroke="rgba(58, 255, 0, 1)" stroke-width="1.5"></path><path d="M1101.97 -101.92L1101.97 -101.92" stroke="rgba(58, 255, 0, 1)" stroke-width="1.5"></path><path d="M1101.97 -101.92L1131.26 49.71" stroke="rgba(58, 255, 0, 1)" stroke-width="1.5"></path><path d="M1101.97 -101.92L1292.74 -96.09" stroke="rgba(58, 255, 0, 1)" stroke-width="1.5"></path><path d="M1101.97 -101.92L1004.76 74.2" stroke="rgba(58, 255, 0, 1)" stroke-width="1.5"></path><path d="M1101.97 -101.92L1112.19 204.15" stroke="rgba(58, 255, 0, 1)" stroke-width="1.5"></path><path d="M1101.97 -101.92L996.98 200.06" stroke="rgba(58, 255, 0, 1)" stroke-width="1.5"></path><path d="M1101.97 -101.92L1302.48 189.88" stroke="rgba(58, 255, 0, 1)" stroke-width="1.5"></path><path d="M1131.26 49.71L1131.26 49.71" stroke="rgba(58, 255, 0, 1)" stroke-width="1.5"></path><path d="M1131.26 49.71L1112.19 204.15" stroke="rgba(58, 255, 0, 1)" stroke-width="1.5"></path><path d="M1131.26 49.71L1292.74 -96.09" stroke="rgba(58, 255, 0, 1)" stroke-width="1.5"></path><path d="M1131.26 49.71L1302.48 189.88" stroke="rgba(58, 255, 0, 1)" stroke-width="1.5"></path><path d="M1112.19 204.15L1112.19 204.15" stroke="rgba(58, 255, 0, 1)" stroke-width="1.5"></path><path d="M1123.5 338.81L1123.5 338.81" stroke="rgba(58, 255, 0, 1)" stroke-width="1.5"></path><path d="M1123.5 338.81L1112.19 204.15" stroke="rgba(58, 255, 0, 1)" stroke-width="1.5"></path><path d="M1092.8 495.57L1092.8 495.57" stroke="rgba(58, 255, 0, 1)" stroke-width="1.5"></path><path d="M1092.8 495.57L1123.5 338.81" stroke="rgba(58, 255, 0, 1)" stroke-width="1.5"></path><path d="M1142.79 666.33L1142.79 666.33" stroke="rgba(58, 255, 0, 1)" stroke-width="1.5"></path><path d="M1142.79 666.33L1273.91 654.07" stroke="rgba(58, 255, 0, 1)" stroke-width="1.5"></path><path d="M1142.79 666.33L1092.8 495.57" stroke="rgba(58, 255, 0, 1)" stroke-width="1.5"></path><path d="M1292.74 -96.09L1292.74 -96.09" stroke="rgba(58, 255, 0, 1)" stroke-width="1.5"></path><path d="M1292.74 -96.09L1459.71 -92.51" stroke="rgba(58, 255, 0, 1)" stroke-width="1.5"></path><path d="M1292.74 -96.09L1421.65 88.49" stroke="rgba(58, 255, 0, 1)" stroke-width="1.5"></path><path d="M1292.74 -96.09L1302.48 189.88" stroke="rgba(58, 255, 0, 1)" stroke-width="1.5"></path><path d="M1302.48 189.88L1302.48 189.88" stroke="rgba(58, 255, 0, 1)" stroke-width="1.5"></path><path d="M1302.48 189.88L1400.97 245.56" stroke="rgba(58, 255, 0, 1)" stroke-width="1.5"></path><path d="M1302.48 189.88L1421.65 88.49" stroke="rgba(58, 255, 0, 1)" stroke-width="1.5"></path><path d="M1302.48 189.88L1112.19 204.15" stroke="rgba(58, 255, 0, 1)" stroke-width="1.5"></path><path d="M1302.48 189.88L1393.65 365.11" stroke="rgba(58, 255, 0, 1)" stroke-width="1.5"></path><path d="M1293.78 395.7L1293.78 395.7" stroke="rgba(58, 255, 0, 1)" stroke-width="1.5"></path><path d="M1293.78 395.7L1393.65 365.11" stroke="rgba(58, 255, 0, 1)" stroke-width="1.5"></path><path d="M1293.78 395.7L1123.5 338.81" stroke="rgba(58, 255, 0, 1)" stroke-width="1.5"></path><path d="M1293.78 395.7L1400.97 245.56" stroke="rgba(58, 255, 0, 1)" stroke-width="1.5"></path><path d="M1293.78 395.7L1443.97 513.37" stroke="rgba(58, 255, 0, 1)" stroke-width="1.5"></path><path d="M1293.78 395.7L1302.48 189.88" stroke="rgba(58, 255, 0, 1)" stroke-width="1.5"></path><path d="M1273.91 654.07L1273.91 654.07" stroke="rgba(58, 255, 0, 1)" stroke-width="1.5"></path><path d="M1273.91 654.07L1427.71 698.63" stroke="rgba(58, 255, 0, 1)" stroke-width="1.5"></path><path d="M1273.91 654.07L1443.97 513.37" stroke="rgba(58, 255, 0, 1)" stroke-width="1.5"></path><path d="M1273.91 654.07L1092.8 495.57" stroke="rgba(58, 255, 0, 1)" stroke-width="1.5"></path><path d="M1273.91 654.07L1293.78 395.7" stroke="rgba(58, 255, 0, 1)" stroke-width="1.5"></path><path d="M1273.91 654.07L1545.55 707.45" stroke="rgba(58, 255, 0, 1)" stroke-width="1.5"></path><path d="M1459.71 -92.51L1459.71 -92.51" stroke="rgba(58, 255, 0, 1)" stroke-width="1.5"></path><path d="M1459.71 -92.51L1611.37 -92.94" stroke="rgba(58, 255, 0, 1)" stroke-width="1.5"></path><path d="M1421.65 88.49L1421.65 88.49" stroke="rgba(58, 255, 0, 1)" stroke-width="1.5"></path><path d="M1421.65 88.49L1549.96 75.05" stroke="rgba(58, 255, 0, 1)" stroke-width="1.5"></path><path d="M1421.65 88.49L1400.97 245.56" stroke="rgba(58, 255, 0, 1)" stroke-width="1.5"></path><path d="M1421.65 88.49L1459.71 -92.51" stroke="rgba(58, 255, 0, 1)" stroke-width="1.5"></path><path d="M1421.65 88.49L1604.45 247.06" stroke="rgba(58, 255, 0, 1)" stroke-width="1.5"></path><path d="M1400.97 245.56L1400.97 245.56" stroke="rgba(58, 255, 0, 1)" stroke-width="1.5"></path><path d="M1400.97 245.56L1393.65 365.11" stroke="rgba(58, 255, 0, 1)" stroke-width="1.5"></path><path d="M1393.65 365.11L1393.65 365.11" stroke="rgba(58, 255, 0, 1)" stroke-width="1.5"></path><path d="M1393.65 365.11L1443.97 513.37" stroke="rgba(58, 255, 0, 1)" stroke-width="1.5"></path><path d="M1393.65 365.11L1569.76 391.27" stroke="rgba(58, 255, 0, 1)" stroke-width="1.5"></path><path d="M1443.97 513.37L1443.97 513.37" stroke="rgba(58, 255, 0, 1)" stroke-width="1.5"></path><path d="M1443.97 513.37L1590.33 510.57" stroke="rgba(58, 255, 0, 1)" stroke-width="1.5"></path><path d="M1443.97 513.37L1569.76 391.27" stroke="rgba(58, 255, 0, 1)" stroke-width="1.5"></path><path d="M1443.97 513.37L1427.71 698.63" stroke="rgba(58, 255, 0, 1)" stroke-width="1.5"></path><path d="M1427.71 698.63L1427.71 698.63" stroke="rgba(58, 255, 0, 1)" stroke-width="1.5"></path><path d="M1427.71 698.63L1545.55 707.45" stroke="rgba(58, 255, 0, 1)" stroke-width="1.5"></path><path d="M1427.71 698.63L1590.33 510.57" stroke="rgba(58, 255, 0, 1)" stroke-width="1.5"></path><path d="M1427.71 698.63L1142.79 666.33" stroke="rgba(58, 255, 0, 1)" stroke-width="1.5"></path><path d="M1611.37 -92.94L1611.37 -92.94" stroke="rgba(58, 255, 0, 1)" stroke-width="1.5"></path><path d="M1611.37 -92.94L1549.96 75.05" stroke="rgba(58, 255, 0, 1)" stroke-width="1.5"></path><path d="M1549.96 75.05L1549.96 75.05" stroke="rgba(58, 255, 0, 1)" stroke-width="1.5"></path><path d="M1549.96 75.05L1604.45 247.06" stroke="rgba(58, 255, 0, 1)" stroke-width="1.5"></path><path d="M1549.96 75.05L1459.71 -92.51" stroke="rgba(58, 255, 0, 1)" stroke-width="1.5"></path><path d="M1549.96 75.05L1400.97 245.56" stroke="rgba(58, 255, 0, 1)" stroke-width="1.5"></path><path d="M1549.96 75.05L1302.48 189.88" stroke="rgba(58, 255, 0, 1)" stroke-width="1.5"></path><path d="M1604.45 247.06L1604.45 247.06" stroke="rgba(58, 255, 0, 1)" stroke-width="1.5"></path><path d="M1604.45 247.06L1569.76 391.27" stroke="rgba(58, 255, 0, 1)" stroke-width="1.5"></path><path d="M1604.45 247.06L1400.97 245.56" stroke="rgba(58, 255, 0, 1)" stroke-width="1.5"></path><path d="M1569.76 391.27L1569.76 391.27" stroke="rgba(58, 255, 0, 1)" stroke-width="1.5"></path><path d="M1569.76 391.27L1590.33 510.57" stroke="rgba(58, 255, 0, 1)" stroke-width="1.5"></path><path d="M1569.76 391.27L1400.97 245.56" stroke="rgba(58, 255, 0, 1)" stroke-width="1.5"></path><path d="M1590.33 510.57L1590.33 510.57" stroke="rgba(58, 255, 0, 1)" stroke-width="1.5"></path><path d="M1590.33 510.57L1545.55 707.45" stroke="rgba(58, 255, 0, 1)" stroke-width="1.5"></path><path d="M1590.33 510.57L1393.65 365.11" stroke="rgba(58, 255, 0, 1)" stroke-width="1.5"></path><path d="M1590.33 510.57L1604.45 247.06" stroke="rgba(58, 255, 0, 1)" stroke-width="1.5"></path><path d="M1545.55 707.45L1545.55 707.45" stroke="rgba(58, 255, 0, 1)" stroke-width="1.5"></path><path d="M1545.55 707.45L1443.97 513.37" stroke="rgba(58, 255, 0, 1)" stroke-width="1.5"></path><path d="M1545.55 707.45L1569.76 391.27" stroke="rgba(58, 255, 0, 1)" stroke-width="1.5"></path><circle r="5" cx="-77.66" cy="339.49" fill="rgba(58, 255, 0, 1)"></circle><circle r="5" cx="-90.96" cy="523.3" fill="rgba(58, 255, 0, 1)"></circle><circle r="5" cx="-76.98" cy="677.19" fill="rgba(58, 255, 0, 1)"></circle><circle r="5" cx="48.69" cy="409.59" fill="rgba(58, 255, 0, 1)"></circle><circle r="5" cx="57.32" cy="497.08" fill="rgba(58, 255, 0, 1)"></circle><circle r="5" cx="43.64" cy="667.15" fill="rgba(58, 255, 0, 1)"></circle><circle r="5" cx="226.01" cy="362.44" fill="rgba(58, 255, 0, 1)"></circle><circle r="5" cx="256.86" cy="536.2" fill="rgba(58, 255, 0, 1)"></circle><circle r="5" cx="196.78" cy="638.8" fill="rgba(58, 255, 0, 1)"></circle><circle r="5" cx="401.36" cy="372.68" fill="rgba(58, 255, 0, 1)"></circle><circle r="5" cx="395.88" cy="516.97" fill="rgba(58, 255, 0, 1)"></circle><circle r="5" cx="367.34" cy="679.4" fill="rgba(58, 255, 0, 1)"></circle><circle r="5" cx="535.39" cy="378.36" fill="rgba(58, 255, 0, 1)"></circle><circle r="5" cx="555.36" cy="643.32" fill="rgba(58, 255, 0, 1)"></circle><circle r="5" cx="675.85" cy="392.4" fill="rgba(58, 255, 0, 1)"></circle><circle r="5" cx="707.31" cy="647.19" fill="rgba(58, 255, 0, 1)"></circle><circle r="5" cx="815.81" cy="252.83" fill="rgba(58, 255, 0, 1)"></circle><circle r="5" cx="847.31" cy="375.05" fill="rgba(58, 255, 0, 1)"></circle><circle r="5" cx="810.24" cy="531.16" fill="rgba(58, 255, 0, 1)"></circle><circle r="5" cx="861.12" cy="702.15" fill="rgba(58, 255, 0, 1)"></circle><circle r="5" cx="1004.76" cy="74.2" fill="rgba(58, 255, 0, 1)"></circle><circle r="5" cx="996.98" cy="200.06" fill="rgba(58, 255, 0, 1)"></circle><circle r="5" cx="947.69" cy="369.8" fill="rgba(58, 255, 0, 1)"></circle><circle r="5" cx="982.29" cy="699.82" fill="rgba(58, 255, 0, 1)"></circle><circle r="5" cx="1101.97" cy="-101.92" fill="rgba(58, 255, 0, 1)"></circle><circle r="5" cx="1131.26" cy="49.71" fill="rgba(58, 255, 0, 1)"></circle><circle r="5" cx="1112.19" cy="204.15" fill="rgba(58, 255, 0, 1)"></circle><circle r="5" cx="1123.5" cy="338.81" fill="rgba(58, 255, 0, 1)"></circle><circle r="5" cx="1092.8" cy="495.57" fill="rgba(58, 255, 0, 1)"></circle><circle r="5" cx="1142.79" cy="666.33" fill="rgba(58, 255, 0, 1)"></circle><circle r="5" cx="1292.74" cy="-96.09" fill="rgba(58, 255, 0, 1)"></circle><circle r="5" cx="1302.48" cy="189.88" fill="rgba(58, 255, 0, 1)"></circle><circle r="5" cx="1293.78" cy="395.7" fill="rgba(58, 255, 0, 1)"></circle><circle r="5" cx="1273.91" cy="654.07" fill="rgba(58, 255, 0, 1)"></circle><circle r="5" cx="1459.71" cy="-92.51" fill="rgba(58, 255, 0, 1)"></circle><circle r="5" cx="1421.65" cy="88.49" fill="rgba(58, 255, 0, 1)"></circle><circle r="5" cx="1400.97" cy="245.56" fill="rgba(58, 255, 0, 1)"></circle><circle r="5" cx="1393.65" cy="365.11" fill="rgba(58, 255, 0, 1)"></circle><circle r="5" cx="1443.97" cy="513.37" fill="rgba(58, 255, 0, 1)"></circle><circle r="5" cx="1427.71" cy="698.63" fill="rgba(58, 255, 0, 1)"></circle><circle r="5" cx="1611.37" cy="-92.94" fill="rgba(58, 255, 0, 1)"></circle><circle r="5" cx="1549.96" cy="75.05" fill="rgba(58, 255, 0, 1)"></circle><circle r="5" cx="1604.45" cy="247.06" fill="rgba(58, 255, 0, 1)"></circle><circle r="5" cx="1569.76" cy="391.27" fill="rgba(58, 255, 0, 1)"></circle><circle r="5" cx="1590.33" cy="510.57" fill="rgba(58, 255, 0, 1)"></circle><circle r="5" cx="1545.55" cy="707.45" fill="rgba(58, 255, 0, 1)"></circle><path d="M222.8 679.84L222.8 679.84" stroke="hsl(141.89999999999998, 77.2%, 51.5%)" stroke-width="1.5"></path><path d="M222.8 679.84L101.97 667.6" stroke="hsl(141.89999999999998, 77.2%, 51.5%)" stroke-width="1.5"></path><path d="M222.8 679.84L364.02 704.76" stroke="hsl(141.89999999999998, 77.2%, 51.5%)" stroke-width="1.5"></path><path d="M222.8 679.84L192.39 517.03" stroke="hsl(141.89999999999998, 77.2%, 51.5%)" stroke-width="1.5"></path><path d="M222.8 679.84L368.84 539.98" stroke="hsl(141.89999999999998, 77.2%, 51.5%)" stroke-width="1.5"></path><path d="M222.8 679.84L98.55 491.8" stroke="hsl(141.89999999999998, 77.2%, 51.5%)" stroke-width="1.5"></path><path d="M650.95 526.96L650.95 526.96" stroke="hsl(141.89999999999998, 77.2%, 51.5%)" stroke-width="1.5"></path><path d="M650.95 526.96L682.5 378.02" stroke="hsl(141.89999999999998, 77.2%, 51.5%)" stroke-width="1.5"></path><path d="M650.95 526.96L551.72 405.73" stroke="hsl(141.89999999999998, 77.2%, 51.5%)" stroke-width="1.5"></path><path d="M650.95 526.96L516.63 653.2" stroke="hsl(141.89999999999998, 77.2%, 51.5%)" stroke-width="1.5"></path><path d="M650.95 526.96L794.73 370.66" stroke="hsl(141.89999999999998, 77.2%, 51.5%)" stroke-width="1.5"></path><path d="M650.95 526.96L861.81 556.6" stroke="hsl(141.89999999999998, 77.2%, 51.5%)" stroke-width="1.5"></path><path d="M1002.9 651.94L1002.9 651.94" stroke="hsl(141.89999999999998, 77.2%, 51.5%)" stroke-width="1.5"></path><path d="M1002.9 651.94L1097.34 651.42" stroke="hsl(141.89999999999998, 77.2%, 51.5%)" stroke-width="1.5"></path><path d="M1002.9 651.94L991.25 555.76" stroke="hsl(141.89999999999998, 77.2%, 51.5%)" stroke-width="1.5"></path><path d="M1002.9 651.94L835.39 657.31" stroke="hsl(141.89999999999998, 77.2%, 51.5%)" stroke-width="1.5"></path><path d="M1002.9 651.94L861.81 556.6" stroke="hsl(141.89999999999998, 77.2%, 51.5%)" stroke-width="1.5"></path><path d="M1002.9 651.94L1159.99 511.57" stroke="hsl(141.89999999999998, 77.2%, 51.5%)" stroke-width="1.5"></path><path d="M1118.25 260.06L1118.25 260.06" stroke="hsl(141.89999999999998, 77.2%, 51.5%)" stroke-width="1.5"></path><path d="M1118.25 260.06L1264.3 226.08" stroke="hsl(141.89999999999998, 77.2%, 51.5%)" stroke-width="1.5"></path><path d="M1118.25 260.06L1142.86 412.02" stroke="hsl(141.89999999999998, 77.2%, 51.5%)" stroke-width="1.5"></path><path d="M1118.25 260.06L972.44 346.3" stroke="hsl(141.89999999999998, 77.2%, 51.5%)" stroke-width="1.5"></path><path d="M1118.25 260.06L1149.06 45.21" stroke="hsl(141.89999999999998, 77.2%, 51.5%)" stroke-width="1.5"></path><path d="M1118.25 260.06L1302.67 404.88" stroke="hsl(141.89999999999998, 77.2%, 51.5%)" stroke-width="1.5"></path><path d="M1289.85 -95.18L1289.85 -95.18" stroke="hsl(141.89999999999998, 77.2%, 51.5%)" stroke-width="1.5"></path><path d="M1289.85 -95.18L1439.1 -70.45" stroke="hsl(141.89999999999998, 77.2%, 51.5%)" stroke-width="1.5"></path><path d="M1289.85 -95.18L1388.01 66.04" stroke="hsl(141.89999999999998, 77.2%, 51.5%)" stroke-width="1.5"></path><path d="M1289.85 -95.18L1149.06 45.21" stroke="hsl(141.89999999999998, 77.2%, 51.5%)" stroke-width="1.5"></path><path d="M1302.67 404.88L1302.67 404.88" stroke="hsl(141.89999999999998, 77.2%, 51.5%)" stroke-width="1.5"></path><path d="M1302.67 404.88L1257.7 491.31" stroke="hsl(141.89999999999998, 77.2%, 51.5%)" stroke-width="1.5"></path><path d="M1302.67 404.88L1393.62 498.04" stroke="hsl(141.89999999999998, 77.2%, 51.5%)" stroke-width="1.5"></path><path d="M1302.67 404.88L1434.52 398.38" stroke="hsl(141.89999999999998, 77.2%, 51.5%)" stroke-width="1.5"></path><path d="M1302.67 404.88L1142.86 412.02" stroke="hsl(141.89999999999998, 77.2%, 51.5%)" stroke-width="1.5"></path><path d="M1302.67 404.88L1159.99 511.57" stroke="hsl(141.89999999999998, 77.2%, 51.5%)" stroke-width="1.5"></path><path d="M1302.67 404.88L1264.3 226.08" stroke="hsl(141.89999999999998, 77.2%, 51.5%)" stroke-width="1.5"></path><path d="M1439.1 -70.45L1439.1 -70.45" stroke="hsl(141.89999999999998, 77.2%, 51.5%)" stroke-width="1.5"></path><path d="M1439.1 -70.45L1540.87 -58.14" stroke="hsl(141.89999999999998, 77.2%, 51.5%)" stroke-width="1.5"></path><path d="M1439.1 -70.45L1388.01 66.04" stroke="hsl(141.89999999999998, 77.2%, 51.5%)" stroke-width="1.5"></path><path d="M1439.1 -70.45L1564.55 54.66" stroke="hsl(141.89999999999998, 77.2%, 51.5%)" stroke-width="1.5"></path><path d="M1540.87 -58.14L1540.87 -58.14" stroke="hsl(141.89999999999998, 77.2%, 51.5%)" stroke-width="1.5"></path><path d="M1540.87 -58.14L1564.55 54.66" stroke="hsl(141.89999999999998, 77.2%, 51.5%)" stroke-width="1.5"></path><path d="M1540.87 -58.14L1388.01 66.04" stroke="hsl(141.89999999999998, 77.2%, 51.5%)" stroke-width="1.5"></path><path d="M1597.33 188.77L1597.33 188.77" stroke="hsl(141.89999999999998, 77.2%, 51.5%)" stroke-width="1.5"></path><path d="M1597.33 188.77L1564.55 54.66" stroke="hsl(141.89999999999998, 77.2%, 51.5%)" stroke-width="1.5"></path><path d="M1597.33 188.77L1419.09 215.47" stroke="hsl(141.89999999999998, 77.2%, 51.5%)" stroke-width="1.5"></path><path d="M1597.33 188.77L1546.56 388.82" stroke="hsl(141.89999999999998, 77.2%, 51.5%)" stroke-width="1.5"></path><path d="M1597.33 188.77L1388.01 66.04" stroke="hsl(141.89999999999998, 77.2%, 51.5%)" stroke-width="1.5"></path><path d="M1597.33 188.77L1540.87 -58.14" stroke="hsl(141.89999999999998, 77.2%, 51.5%)" stroke-width="1.5"></path><path d="M1597.33 188.77L1434.52 398.38" stroke="hsl(141.89999999999998, 77.2%, 51.5%)" stroke-width="1.5"></path><path d="M1546.56 388.82L1546.56 388.82" stroke="hsl(141.89999999999998, 77.2%, 51.5%)" stroke-width="1.5"></path><path d="M1546.56 388.82L1434.52 398.38" stroke="hsl(141.89999999999998, 77.2%, 51.5%)" stroke-width="1.5"></path><path d="M1546.56 388.82L1565.44 560.33" stroke="hsl(141.89999999999998, 77.2%, 51.5%)" stroke-width="1.5"></path><path d="M1546.56 388.82L1393.62 498.04" stroke="hsl(141.89999999999998, 77.2%, 51.5%)" stroke-width="1.5"></path><path d="M1579.89 653.55L1579.89 653.55" stroke="hsl(141.89999999999998, 77.2%, 51.5%)" stroke-width="1.5"></path><path d="M1579.89 653.55L1565.44 560.33" stroke="hsl(141.89999999999998, 77.2%, 51.5%)" stroke-width="1.5"></path><path d="M1579.89 653.55L1403.68 644.76" stroke="hsl(141.89999999999998, 77.2%, 51.5%)" stroke-width="1.5"></path><path d="M1579.89 653.55L1393.62 498.04" stroke="hsl(141.89999999999998, 77.2%, 51.5%)" stroke-width="1.5"></path><path d="M-78.05 679.59L-78.05 679.59" stroke="hsl(141.89999999999998, 77.2%, 51.5%)" stroke-width="1.5"></path><path d="M-78.05 679.59L101.97 667.6" stroke="hsl(141.89999999999998, 77.2%, 51.5%)" stroke-width="1.5"></path><path d="M-78.05 679.59L98.55 491.8" stroke="hsl(141.89999999999998, 77.2%, 51.5%)" stroke-width="1.5"></path><path d="M-78.05 679.59L222.8 679.84" stroke="hsl(141.89999999999998, 77.2%, 51.5%)" stroke-width="1.5"></path><path d="M98.55 491.8L98.55 491.8" stroke="hsl(141.89999999999998, 77.2%, 51.5%)" stroke-width="1.5"></path><path d="M98.55 491.8L192.39 517.03" stroke="hsl(141.89999999999998, 77.2%, 51.5%)" stroke-width="1.5"></path><path d="M98.55 491.8L101.97 667.6" stroke="hsl(141.89999999999998, 77.2%, 51.5%)" stroke-width="1.5"></path><path d="M101.97 667.6L101.97 667.6" stroke="hsl(141.89999999999998, 77.2%, 51.5%)" stroke-width="1.5"></path><path d="M101.97 667.6L192.39 517.03" stroke="hsl(141.89999999999998, 77.2%, 51.5%)" stroke-width="1.5"></path><path d="M192.39 517.03L192.39 517.03" stroke="hsl(141.89999999999998, 77.2%, 51.5%)" stroke-width="1.5"></path><path d="M192.39 517.03L368.84 539.98" stroke="hsl(141.89999999999998, 77.2%, 51.5%)" stroke-width="1.5"></path><path d="M368.84 539.98L368.84 539.98" stroke="hsl(141.89999999999998, 77.2%, 51.5%)" stroke-width="1.5"></path><path d="M368.84 539.98L364.02 704.76" stroke="hsl(141.89999999999998, 77.2%, 51.5%)" stroke-width="1.5"></path><path d="M364.02 704.76L364.02 704.76" stroke="hsl(141.89999999999998, 77.2%, 51.5%)" stroke-width="1.5"></path><path d="M364.02 704.76L516.63 653.2" stroke="hsl(141.89999999999998, 77.2%, 51.5%)" stroke-width="1.5"></path><path d="M364.02 704.76L192.39 517.03" stroke="hsl(141.89999999999998, 77.2%, 51.5%)" stroke-width="1.5"></path><path d="M364.02 704.76L101.97 667.6" stroke="hsl(141.89999999999998, 77.2%, 51.5%)" stroke-width="1.5"></path><path d="M364.02 704.76L650.95 526.96" stroke="hsl(141.89999999999998, 77.2%, 51.5%)" stroke-width="1.5"></path><path d="M551.72 405.73L551.72 405.73" stroke="hsl(141.89999999999998, 77.2%, 51.5%)" stroke-width="1.5"></path><path d="M551.72 405.73L682.5 378.02" stroke="hsl(141.89999999999998, 77.2%, 51.5%)" stroke-width="1.5"></path><path d="M516.63 653.2L516.63 653.2" stroke="hsl(141.89999999999998, 77.2%, 51.5%)" stroke-width="1.5"></path><path d="M516.63 653.2L368.84 539.98" stroke="hsl(141.89999999999998, 77.2%, 51.5%)" stroke-width="1.5"></path><path d="M682.5 378.02L682.5 378.02" stroke="hsl(141.89999999999998, 77.2%, 51.5%)" stroke-width="1.5"></path><path d="M682.5 378.02L794.73 370.66" stroke="hsl(141.89999999999998, 77.2%, 51.5%)" stroke-width="1.5"></path><path d="M794.73 370.66L794.73 370.66" stroke="hsl(141.89999999999998, 77.2%, 51.5%)" stroke-width="1.5"></path><path d="M794.73 370.66L972.44 346.3" stroke="hsl(141.89999999999998, 77.2%, 51.5%)" stroke-width="1.5"></path><path d="M794.73 370.66L861.81 556.6" stroke="hsl(141.89999999999998, 77.2%, 51.5%)" stroke-width="1.5"></path><path d="M794.73 370.66L551.72 405.73" stroke="hsl(141.89999999999998, 77.2%, 51.5%)" stroke-width="1.5"></path><path d="M794.73 370.66L991.25 555.76" stroke="hsl(141.89999999999998, 77.2%, 51.5%)" stroke-width="1.5"></path><path d="M861.81 556.6L861.81 556.6" stroke="hsl(141.89999999999998, 77.2%, 51.5%)" stroke-width="1.5"></path><path d="M861.81 556.6L835.39 657.31" stroke="hsl(141.89999999999998, 77.2%, 51.5%)" stroke-width="1.5"></path><path d="M861.81 556.6L991.25 555.76" stroke="hsl(141.89999999999998, 77.2%, 51.5%)" stroke-width="1.5"></path><path d="M835.39 657.31L835.39 657.31" stroke="hsl(141.89999999999998, 77.2%, 51.5%)" stroke-width="1.5"></path><path d="M972.44 346.3L972.44 346.3" stroke="hsl(141.89999999999998, 77.2%, 51.5%)" stroke-width="1.5"></path><path d="M972.44 346.3L1142.86 412.02" stroke="hsl(141.89999999999998, 77.2%, 51.5%)" stroke-width="1.5"></path><path d="M991.25 555.76L991.25 555.76" stroke="hsl(141.89999999999998, 77.2%, 51.5%)" stroke-width="1.5"></path><path d="M991.25 555.76L1097.34 651.42" stroke="hsl(141.89999999999998, 77.2%, 51.5%)" stroke-width="1.5"></path><path d="M1149.06 45.21L1149.06 45.21" stroke="hsl(141.89999999999998, 77.2%, 51.5%)" stroke-width="1.5"></path><path d="M1149.06 45.21L1264.3 226.08" stroke="hsl(141.89999999999998, 77.2%, 51.5%)" stroke-width="1.5"></path><path d="M1149.06 45.21L1388.01 66.04" stroke="hsl(141.89999999999998, 77.2%, 51.5%)" stroke-width="1.5"></path><path d="M1149.06 45.21L1439.1 -70.45" stroke="hsl(141.89999999999998, 77.2%, 51.5%)" stroke-width="1.5"></path><path d="M1142.86 412.02L1142.86 412.02" stroke="hsl(141.89999999999998, 77.2%, 51.5%)" stroke-width="1.5"></path><path d="M1142.86 412.02L1159.99 511.57" stroke="hsl(141.89999999999998, 77.2%, 51.5%)" stroke-width="1.5"></path><path d="M1142.86 412.02L1257.7 491.31" stroke="hsl(141.89999999999998, 77.2%, 51.5%)" stroke-width="1.5"></path><path d="M1159.99 511.57L1159.99 511.57" stroke="hsl(141.89999999999998, 77.2%, 51.5%)" stroke-width="1.5"></path><path d="M1159.99 511.57L1257.7 491.31" stroke="hsl(141.89999999999998, 77.2%, 51.5%)" stroke-width="1.5"></path><path d="M1097.34 651.42L1097.34 651.42" stroke="hsl(141.89999999999998, 77.2%, 51.5%)" stroke-width="1.5"></path><path d="M1097.34 651.42L1159.99 511.57" stroke="hsl(141.89999999999998, 77.2%, 51.5%)" stroke-width="1.5"></path><path d="M1264.3 226.08L1264.3 226.08" stroke="hsl(141.89999999999998, 77.2%, 51.5%)" stroke-width="1.5"></path><path d="M1264.3 226.08L1419.09 215.47" stroke="hsl(141.89999999999998, 77.2%, 51.5%)" stroke-width="1.5"></path><path d="M1264.3 226.08L1388.01 66.04" stroke="hsl(141.89999999999998, 77.2%, 51.5%)" stroke-width="1.5"></path><path d="M1264.3 226.08L1142.86 412.02" stroke="hsl(141.89999999999998, 77.2%, 51.5%)" stroke-width="1.5"></path><path d="M1257.7 491.31L1257.7 491.31" stroke="hsl(141.89999999999998, 77.2%, 51.5%)" stroke-width="1.5"></path><path d="M1309.71 685.97L1309.71 685.97" stroke="hsl(141.89999999999998, 77.2%, 51.5%)" stroke-width="1.5"></path><path d="M1309.71 685.97L1403.68 644.76" stroke="hsl(141.89999999999998, 77.2%, 51.5%)" stroke-width="1.5"></path><path d="M1309.71 685.97L1257.7 491.31" stroke="hsl(141.89999999999998, 77.2%, 51.5%)" stroke-width="1.5"></path><path d="M1309.71 685.97L1393.62 498.04" stroke="hsl(141.89999999999998, 77.2%, 51.5%)" stroke-width="1.5"></path><path d="M1388.01 66.04L1388.01 66.04" stroke="hsl(141.89999999999998, 77.2%, 51.5%)" stroke-width="1.5"></path><path d="M1388.01 66.04L1419.09 215.47" stroke="hsl(141.89999999999998, 77.2%, 51.5%)" stroke-width="1.5"></path><path d="M1419.09 215.47L1419.09 215.47" stroke="hsl(141.89999999999998, 77.2%, 51.5%)" stroke-width="1.5"></path><path d="M1419.09 215.47L1434.52 398.38" stroke="hsl(141.89999999999998, 77.2%, 51.5%)" stroke-width="1.5"></path><path d="M1419.09 215.47L1546.56 388.82" stroke="hsl(141.89999999999998, 77.2%, 51.5%)" stroke-width="1.5"></path><path d="M1434.52 398.38L1434.52 398.38" stroke="hsl(141.89999999999998, 77.2%, 51.5%)" stroke-width="1.5"></path><path d="M1434.52 398.38L1393.62 498.04" stroke="hsl(141.89999999999998, 77.2%, 51.5%)" stroke-width="1.5"></path><path d="M1393.62 498.04L1393.62 498.04" stroke="hsl(141.89999999999998, 77.2%, 51.5%)" stroke-width="1.5"></path><path d="M1403.68 644.76L1403.68 644.76" stroke="hsl(141.89999999999998, 77.2%, 51.5%)" stroke-width="1.5"></path><path d="M1403.68 644.76L1393.62 498.04" stroke="hsl(141.89999999999998, 77.2%, 51.5%)" stroke-width="1.5"></path><path d="M1403.68 644.76L1565.44 560.33" stroke="hsl(141.89999999999998, 77.2%, 51.5%)" stroke-width="1.5"></path><path d="M1403.68 644.76L1257.7 491.31" stroke="hsl(141.89999999999998, 77.2%, 51.5%)" stroke-width="1.5"></path><path d="M1564.55 54.66L1564.55 54.66" stroke="hsl(141.89999999999998, 77.2%, 51.5%)" stroke-width="1.5"></path><path d="M1564.55 54.66L1388.01 66.04" stroke="hsl(141.89999999999998, 77.2%, 51.5%)" stroke-width="1.5"></path><path d="M1564.55 54.66L1419.09 215.47" stroke="hsl(141.89999999999998, 77.2%, 51.5%)" stroke-width="1.5"></path><path d="M1565.44 560.33L1565.44 560.33" stroke="hsl(141.89999999999998, 77.2%, 51.5%)" stroke-width="1.5"></path><path d="M1565.44 560.33L1393.62 498.04" stroke="hsl(141.89999999999998, 77.2%, 51.5%)" stroke-width="1.5"></path><path d="M1565.44 560.33L1434.52 398.38" stroke="hsl(141.89999999999998, 77.2%, 51.5%)" stroke-width="1.5"></path><path d="M1565.44 560.33L1309.71 685.97" stroke="hsl(141.89999999999998, 77.2%, 51.5%)" stroke-width="1.5"></path><circle r="25" cx="222.8" cy="679.84" fill="url(&quot;#SvgjsRadialGradient1007&quot;)"></circle><circle r="25" cx="650.95" cy="526.96" fill="url(&quot;#SvgjsRadialGradient1007&quot;)"></circle><circle r="25" cx="1002.9" cy="651.94" fill="url(&quot;#SvgjsRadialGradient1007&quot;)"></circle><circle r="25" cx="1118.25" cy="260.06" fill="url(&quot;#SvgjsRadialGradient1007&quot;)"></circle><circle r="25" cx="1289.85" cy="-95.18" fill="url(&quot;#SvgjsRadialGradient1007&quot;)"></circle><circle r="25" cx="1302.67" cy="404.88" fill="url(&quot;#SvgjsRadialGradient1007&quot;)"></circle><circle r="25" cx="1439.1" cy="-70.45" fill="url(&quot;#SvgjsRadialGradient1007&quot;)"></circle><circle r="25" cx="1540.87" cy="-58.14" fill="url(&quot;#SvgjsRadialGradient1007&quot;)"></circle><circle r="25" cx="1597.33" cy="188.77" fill="url(&quot;#SvgjsRadialGradient1007&quot;)"></circle><circle r="25" cx="1546.56" cy="388.82" fill="url(&quot;#SvgjsRadialGradient1007&quot;)"></circle><circle r="25" cx="1579.89" cy="653.55" fill="url(&quot;#SvgjsRadialGradient1007&quot;)"></circle><circle r="5" cx="-78.05" cy="679.59" fill="#8bd9a8"></circle><circle r="5" cx="98.55" cy="491.8" fill="#8bd9a8"></circle><circle r="5" cx="101.97" cy="667.6" fill="#8bd9a8"></circle><circle r="5" cx="192.39" cy="517.03" fill="#8bd9a8"></circle><circle r="5" cx="368.84" cy="539.98" fill="#8bd9a8"></circle><circle r="5" cx="364.02" cy="704.76" fill="#8bd9a8"></circle><circle r="5" cx="551.72" cy="405.73" fill="#8bd9a8"></circle><circle r="5" cx="516.63" cy="653.2" fill="#8bd9a8"></circle><circle r="5" cx="682.5" cy="378.02" fill="#8bd9a8"></circle><circle r="5" cx="794.73" cy="370.66" fill="#8bd9a8"></circle><circle r="5" cx="861.81" cy="556.6" fill="#8bd9a8"></circle><circle r="5" cx="835.39" cy="657.31" fill="#8bd9a8"></circle><circle r="5" cx="972.44" cy="346.3" fill="#8bd9a8"></circle><circle r="5" cx="991.25" cy="555.76" fill="#8bd9a8"></circle><circle r="5" cx="1149.06" cy="45.21" fill="#8bd9a8"></circle><circle r="5" cx="1142.86" cy="412.02" fill="#8bd9a8"></circle><circle r="5" cx="1159.99" cy="511.57" fill="#8bd9a8"></circle><circle r="5" cx="1097.34" cy="651.42" fill="#8bd9a8"></circle><circle r="5" cx="1264.3" cy="226.08" fill="#8bd9a8"></circle><circle r="5" cx="1257.7" cy="491.31" fill="#8bd9a8"></circle><circle r="5" cx="1309.71" cy="685.97" fill="#8bd9a8"></circle><circle r="5" cx="1388.01" cy="66.04" fill="#8bd9a8"></circle><circle r="5" cx="1419.09" cy="215.47" fill="#8bd9a8"></circle><circle r="5" cx="1434.52" cy="398.38" fill="#8bd9a8"></circle><circle r="5" cx="1393.62" cy="498.04" fill="#8bd9a8"></circle><circle r="5" cx="1403.68" cy="644.76" fill="#8bd9a8"></circle><circle r="5" cx="1564.55" cy="54.66" fill="#8bd9a8"></circle><circle r="5" cx="1565.44" cy="560.33" fill="#8bd9a8"></circle></g><defs><mask id="SvgjsMask1006"><rect width="1440" height="560" fill="#ffffff"></rect></mask><radialGradient id="SvgjsRadialGradient1007"><stop stop-color="#ffffff" offset="0.1"></stop><stop stop-color="rgba(23, 179, 80, 1)" offset="0.2"></stop><stop stop-color="rgba(23, 179, 80, 0)" offset="1"></stop></radialGradient></defs></svg>