<svg xmlns="http://www.w3.org/2000/svg" version="1.1" xmlns:xlink="http://www.w3.org/1999/xlink" xmlns:svgjs="http://svgjs.dev/svgjs" width="1440" height="560" preserveAspectRatio="none" viewBox="0 0 1440 560"><g mask="url(&quot;#SvgjsMask1406&quot;)" fill="none"><path d="M 0,39 C 57.6,85.8 172.8,270 288,273 C 403.2,276 460.8,78.8 576,54 C 691.2,29.2 748.8,143.2 864,149 C 979.2,154.8 1036.8,66.4 1152,83 C 1267.2,99.6 1382.4,202.2 1440,232L1440 560L0 560z" fill="rgba(167, 255, 176, 1)"></path><path d="M 0,310 C 96,341.4 288,470.8 480,467 C 672,463.2 768,285.8 960,291 C 1152,296.2 1344,452.6 1440,493L1440 560L0 560z" fill="rgba(227, 255, 230, 1)"></path></g><defs><mask id="SvgjsMask1406"><rect width="1440" height="560" fill="#ffffff"></rect></mask></defs></svg>